<svg width="64" height="64" viewBox="0 0 64 64" fill="none" xmlns="http://www.w3.org/2000/svg">
<rect width="64" height="64" rx="32" fill="white"/>
<rect x="0.5" y="0.5" width="63" height="63" rx="31.5" stroke="#191825" stroke-opacity="0.1"/>
<path d="M28.4251 31.3592H37.12C37.4735 31.3592 37.76 31.6458 37.76 31.9992C37.76 32.3527 37.4735 32.6392 37.12 32.6392H28.4251L30.5004 34.7145C30.7504 34.9645 30.7504 35.3697 30.5004 35.6196C30.2505 35.8696 29.8453 35.8696 29.5953 35.6196L26.88 32.9043C26.3802 32.4045 26.3802 31.594 26.88 31.0941L29.5953 28.3789C29.8453 28.1289 30.2505 28.1289 30.5004 28.3789C30.7504 28.6288 30.7504 29.034 30.5004 29.284L28.4251 31.3592Z" fill="#191825"/>
</svg>
