<svg width="28" height="27" viewBox="0 0 28 27" fill="none" xmlns="http://www.w3.org/2000/svg">
<path d="M21.8912 16.4729C21.5459 16.8075 21.3872 17.2915 21.4659 17.7662L22.6512 24.3262C22.7512 24.8822 22.5165 25.4449 22.0512 25.7662C21.5952 26.0995 20.9885 26.1395 20.4912 25.8729L14.5859 22.7929C14.3805 22.6835 14.1525 22.6249 13.9192 22.6182H13.5579C13.4325 22.6369 13.3099 22.6769 13.1979 22.7382L7.29118 25.8329C6.99918 25.9795 6.66852 26.0315 6.34452 25.9795C5.55518 25.8302 5.02852 25.0782 5.15785 24.2849L6.34452 17.7249C6.42318 17.2462 6.26452 16.7595 5.91918 16.4195L1.10452 11.7529C0.70185 11.3622 0.56185 10.7755 0.74585 10.2462C0.924517 9.71822 1.38052 9.33289 1.93118 9.24622L8.55785 8.28489C9.06185 8.23289 9.50452 7.92622 9.73118 7.47289L12.6512 1.48622C12.7205 1.35289 12.8099 1.23022 12.9179 1.12622L13.0379 1.03289C13.1005 0.963557 13.1725 0.906224 13.2525 0.859557L13.3979 0.806224L13.6245 0.712891H14.1859C14.6872 0.764891 15.1285 1.06489 15.3592 1.51289L18.3179 7.47289C18.5312 7.90889 18.9459 8.21156 19.4245 8.28489L26.0512 9.24622C26.6112 9.32622 27.0792 9.71289 27.2645 10.2462C27.4392 10.7809 27.2885 11.3675 26.8779 11.7529L21.8912 16.4729Z" fill="#FACD49"/>
</svg>
